# xmcd
#
# Track frame offsets:
#	150
#	16067
#	25941
#	37728
#	52806
#	65437
#	76591
#	88989
#	100681
#	112311
#	126005
#	139267
#	154449
#	167196
#	180938
#
# Disc length: 2602 seconds
#
# Revision: 1
# Processed by: cddbd v1.5.1PL2 Copyright (c) Steve Scherf et al.
# Submitted via: audiograbber 1.83.01
#
DISCID=b70a280f
DTITLE=George Jones - CB6067
DYEAR=1900
DGENRE=Karaoke
TTITLE0=Wine Colored Roses
TTITLE1=Love Bug
TTITLE2=High-Tech Redneck
TTITLE3=The Right Left Hand
TTITLE4=She Thinks I Still Care
TTITLE5=Walk Through This World With Me
TTITLE6=The Door
TTITLE7=Honky-Tonk Myself To Death
TTITLE8=She's My Rock
TTITLE9=Writing On The Wall
TTITLE10=Take Me
TTITLE11=She Loved A Lot In Her Time
TTITLE12=Once You've Had The Best
TTITLE13=When The Grass Grows Over Me
TTITLE14=The Window Up Above
EXTD=
EXTT0=
EXTT1=
EXTT2=
EXTT3=
EXTT4=
EXTT5=
EXTT6=
EXTT7=
EXTT8=
EXTT9=
EXTT10=
EXTT11=
EXTT12=
EXTT13=
EXTT14=
PLAYORDER=
